# xmcd CD database file
#
# Track frame offsets:
#	150
#	13220
#	51874
#	66897
#	86328
#	104762
#	121731
#	134696
#	144588
#	180474
#
# Disc length: 2802 seconds
#
# Revision: 0
# Processed by: cddbd v1.5.2PL0 Copyright (c) Steve Scherf et al.
# Submitted via: CDex 1.50Beta3
#
DISCID=8e0af00a
DTITLE=Charles Mingus - Mysterious Blues [CD9)
DYEAR=1900
DGENRE=Jazz
TTITLE0=Ain't Jivin' Blues
TTITLE1=All the Things you Could be by now if Sigmund Freud's Wife was Your Mother
TTITLE2=I'll Remember April
TTITLE3=Drum Conversation
TTITLE4=It's you or no one
TTITLE5=Little White Lies
TTITLE6=Story of Love
TTITLE7=Sure Thing
TTITLE8=What is This Thing Called Love
TTITLE9=Vassarlean
EXTD=
EXTT0=
EXTT1=
EXTT2=
EXTT3=
EXTT4=
EXTT5=
EXTT6=
EXTT7=
EXTT8=
EXTT9=
PLAYORDER=
